# Blender v2.93.2 OBJ File: ''
# www.blender.org
mtllib untitled.mtl
o 42
v 0.232406 -0.745504 0.186945
v 0.232406 -0.745504 1.552311
v -0.227475 -0.745504 1.552311
v -0.227475 -0.745504 0.186945
v 0.232407 1.119982 -0.156967
v -0.227475 1.119982 -0.156968
v -0.227475 1.119982 0.312027
v 0.232406 1.119982 0.312028
v -0.227403 1.104268 -0.882285
v -0.227403 0.507336 -0.389309
v -0.227403 1.119377 -0.389309
v 0.232406 -0.340316 1.552312
v -0.227475 -0.340316 1.552312
v -0.227475 -0.294496 1.007151
v -0.227475 -0.305193 -0.156968
v 0.232407 -0.305193 -0.156967
v 0.232406 -1.216630 -0.156968
v -0.227475 -1.216630 -0.156968
v 0.232407 -0.294496 1.007151
v 0.232406 -1.222569 0.206409
v -0.227475 -1.222569 0.206408
v -0.227403 -0.075523 -1.328406
v 0.223704 -0.075523 -1.328406
v 0.223704 -0.731178 -1.328406
v -0.227403 -0.731178 -1.328406
v 0.223704 0.551492 -0.906299
v 0.223704 0.634134 -1.328406
v 0.223704 1.119377 -1.328406
v 0.223704 1.104269 -0.882285
v 0.223704 -0.129772 -0.389309
v -0.227403 -0.129772 -0.389309
v -0.227403 -0.731178 -0.389309
v 0.223704 -0.731178 -0.389309
v 0.223704 1.119377 -0.389309
v -0.227403 1.119377 -1.328406
v 0.223704 0.507336 -0.389309
v -0.227403 0.551492 -0.906299
v -0.227403 0.634134 -1.328406
v 0.223704 -0.066768 -0.892211
v -0.227403 -0.066768 -0.892211
v 0.223704 -0.684649 -0.901105
v -0.227403 -0.684649 -0.901105
vn 0.0000 -1.0000 -0.0000
vn 0.0000 1.0000 0.0000
vn -1.0000 0.0000 0.0000
vn 0.0000 0.6474 0.7622
vn 0.0000 0.0000 -1.0000
vn 0.0000 -0.0000 1.0000
vn 0.0000 -0.6355 -0.7721
vn 0.0000 1.0000 -0.0092
vn 0.0000 -0.9999 -0.0163
vn -0.0000 0.0408 0.9992
vn 1.0000 0.0000 0.0000
vn 0.0000 -0.6368 -0.7711
vn 0.0000 -0.0434 0.9991
vn 0.0000 0.6045 0.7966
vn 0.0000 -0.5284 -0.8490
vn 0.0000 0.0144 -0.9999
vn 0.0000 0.5743 0.8187
usemtl Material.001
s off
f 2//1 4//1 1//1
f 5//2 7//2 8//2
f 9//3 10//3 11//3
f 8//4 13//4 12//4
f 14//3 15//3 4//3
f 17//5 15//5 16//5
f 12//6 3//6 2//6
f 5//7 14//7 6//7
f 16//8 14//8 19//8
f 17//9 21//9 18//9
f 1//10 21//10 20//10
f 23//5 25//5 22//5
f 27//11 29//11 26//11
f 31//6 33//6 30//6
f 25//1 33//1 32//1
f 28//2 11//2 34//2
f 11//6 36//6 34//6
f 36//12 9//12 29//12
f 9//13 26//13 29//13
f 37//14 30//14 26//14
f 28//5 38//5 35//5
f 27//15 40//15 38//15
f 39//16 42//16 40//16
f 41//17 22//17 42//17
f 34//11 36//11 29//11
f 42//3 22//3 25//3
f 24//11 23//11 41//11
f 19//11 5//11 8//11
f 28//11 34//11 29//11
f 33//11 24//11 41//11
f 6//3 14//3 7//3
f 37//3 40//3 31//3
f 14//3 3//3 13//3
f 26//11 39//11 27//11
f 39//11 26//11 30//11
f 1//11 17//11 16//11
f 14//3 13//3 7//3
f 2//11 19//11 12//11
f 16//11 19//11 1//11
f 30//11 41//11 39//11
f 19//11 8//11 12//11
f 4//3 18//3 21//3
f 40//3 37//3 38//3
f 42//3 25//3 32//3
f 9//3 11//3 35//3
f 31//3 42//3 32//3
f 38//3 9//3 35//3
f 2//1 3//1 4//1
f 5//2 6//2 7//2
f 8//4 7//4 13//4
f 17//5 18//5 15//5
f 12//6 13//6 3//6
f 5//7 19//7 14//7
f 16//8 15//8 14//8
f 17//9 20//9 21//9
f 1//10 4//10 21//10
f 23//5 24//5 25//5
f 27//11 28//11 29//11
f 31//6 32//6 33//6
f 25//1 24//1 33//1
f 28//2 35//2 11//2
f 11//6 10//6 36//6
f 36//12 10//12 9//12
f 9//13 37//13 26//13
f 37//14 31//14 30//14
f 28//5 27//5 38//5
f 27//15 39//15 40//15
f 39//16 41//16 42//16
f 41//17 23//17 22//17
f 14//3 4//3 3//3
f 1//11 20//11 17//11
f 2//11 1//11 19//11
f 30//11 33//11 41//11
f 4//3 15//3 18//3
f 31//3 40//3 42//3
f 38//3 37//3 9//3
